<svg xmlns="http://www.w3.org/2000/svg" width="141" height="30.308" viewBox="0 0 141 30.308">
    <g id="Logo" transform="translate(-35 -28.542)">
      <g transform="translate(-35.993 -18.146)">
        <g transform="translate(70.993 46.688)">
          <path d="M134.463,78.5h-8.2l6.08,13.039-20.462,9.541h22.578Z" transform="translate(-102.341 -71.076)" fill="#c30a2d"></path>
          <path d="M94.92,54.114l-3.463-7.425L70.993,56.231l9.543,20.462V54.114Z" transform="translate(-70.993 -46.688)" fill="#ffd200"></path>
          <path d="M126.262,78.5H111.878v22.58h0l20.462-9.541Z" transform="translate(-102.335 -71.076)" fill="#ff6900"></path>
        </g>
        <g transform="translate(110.599 53.181)">
          <path d="M245.6,103.008a9.747,9.747,0,0,1-2.794-.388,6.83,6.83,0,0,1-2.092-.964V96.708a6.063,6.063,0,0,0,1.685.993,6.3,6.3,0,0,0,2.444.446,3.748,3.748,0,0,0,2.541-.734,2.125,2.125,0,0,0,.829-1.6,2.322,2.322,0,0,0-.407-1.323,3.857,3.857,0,0,0-1.5-1.151l-1.882-1.007a8.708,8.708,0,0,1-2.71-2.144,4.8,4.8,0,0,1-1.025-3.15,5.7,5.7,0,0,1,2.219-4.589,9.126,9.126,0,0,1,5.982-1.827,11.567,11.567,0,0,1,2.471.23,5.352,5.352,0,0,1,1.6.576V86.35a6.11,6.11,0,0,0-3.286-.978,4.045,4.045,0,0,0-2.191.517,1.6,1.6,0,0,0-.815,1.41,1.516,1.516,0,0,0,.38,1.036,4.092,4.092,0,0,0,1.25.863l1.8.949a7.843,7.843,0,0,1,2.935,2.474,5.831,5.831,0,0,1,.969,3.337,6.732,6.732,0,0,1-2.106,4.977Q249.782,103.008,245.6,103.008Z" transform="translate(-240.682 -79.197)"></path>
          <path d="M318.13,123.134a8.071,8.071,0,0,1-5.94-2.129,7.812,7.812,0,0,1-2.149-5.812v-8.315h5.589v8.746a3.4,3.4,0,0,0,.618,2.129,2.22,2.22,0,0,0,1.882.806,2.327,2.327,0,0,0,1.952-.806,3.348,3.348,0,0,0,.632-2.129v-8.746h5.561v8.315a7.811,7.811,0,0,1-2.149,5.812A8.149,8.149,0,0,1,318.13,123.134Z" transform="translate(-293.852 -99.323)"></path>
          <path d="M404.558,106.879l-7.976,16.141h-.59l-7.975-16.141h5.476L396.3,113.9l2.781-7.021Z" transform="translate(-353.628 -99.323)"></path>
          <rect width="5.448" height="15.795" transform="translate(53.289 7.556)"></rect>
          <path d="M516.9,112.676v8.487h-5.674v-15.8h5.365v2.647a6.338,6.338,0,0,1,5.477-3.107,5.493,5.493,0,0,1,4.156,1.64,6.213,6.213,0,0,1,1.573,4.488v10.127h-5.673V112.5a3.449,3.449,0,0,0-.646-2.215,2.207,2.207,0,0,0-1.826-.806,2.536,2.536,0,0,0-1.98.863A3.364,3.364,0,0,0,516.9,112.676Z" transform="translate(-448.078 -97.812)"></path>
          <rect width="5.448" height="15.795" transform="translate(84.041 7.556)"></rect>
          <path d="M642.944,96.227V78.348H648.4V95.1a1.079,1.079,0,0,0,1.1,1.209,1.987,1.987,0,0,0,.59-.072,1.68,1.68,0,0,0,.365-.158v4.52a3.616,3.616,0,0,1-1.152.46,6.431,6.431,0,0,1-1.6.2q-2.67,0-3.71-1.526A6.086,6.086,0,0,1,642.944,96.227Z" transform="translate(-549.054 -77.451)"></path>
          <path d="M470.773,79.881c1.863,0,2.993-.947,2.993-2.688s-1.13-2.688-2.993-2.688c-1.832,0-2.993.947-2.993,2.688S468.941,79.881,470.773,79.881Z" transform="translate(-414.774 -74.506)"></path>
          <path d="M602.572,79.924c1.863,0,2.993-.947,2.993-2.688s-1.13-2.688-2.993-2.688c-1.832,0-2.993.947-2.993,2.688S600.74,79.924,602.572,79.924Z" transform="translate(-515.811 -74.539)"></path>
        </g>
      </g>
    </g>
  </svg>
